<mxfile host="app.diagrams.net" agent="Mozilla/5.0 (Windows NT 10.0; Win64; x64) AppleWebKit/537.36 (KHTML, like Gecko) Chrome/135.0.0.0 Safari/537.36" version="26.2.14">
  <diagram name="Page-1" id="CSI2IQVfZtHc-jA8kjFh">
    <mxGraphModel dx="1603" dy="958" grid="1" gridSize="10" guides="1" tooltips="1" connect="1" arrows="1" fold="1" page="1" pageScale="1" pageWidth="1654" pageHeight="1169" math="0" shadow="0">
      <root>
        <mxCell id="0" />
        <mxCell id="1" parent="0" />
        <mxCell id="gKHcMDsB9Kp4FNWf_19_-239" value="`" style="endArrow=none;dashed=1;html=1;rounded=0;entryX=0.5;entryY=1;entryDx=0;entryDy=0;strokeColor=#747474;" edge="1" parent="1">
          <mxGeometry x="-0.2644" y="-10" width="50" height="50" relative="1" as="geometry">
            <mxPoint x="117" y="825" as="sourcePoint" />
            <mxPoint x="119" y="164" as="targetPoint" />
            <Array as="points">
              <mxPoint x="119" y="1088" />
            </Array>
            <mxPoint as="offset" />
          </mxGeometry>
        </mxCell>
        <mxCell id="gKHcMDsB9Kp4FNWf_19_-218" value="" style="endArrow=none;dashed=1;html=1;rounded=0;strokeColor=#747474;entryX=0.5;entryY=1;entryDx=0;entryDy=0;" edge="1" parent="1">
          <mxGeometry x="-0.0986" width="50" height="50" relative="1" as="geometry">
            <mxPoint x="684" y="1108" as="sourcePoint" />
            <mxPoint x="683.5699999999999" y="158" as="targetPoint" />
            <Array as="points" />
            <mxPoint as="offset" />
          </mxGeometry>
        </mxCell>
        <mxCell id="gKHcMDsB9Kp4FNWf_19_-1" value="&lt;span style=&quot;color: rgb(0, 0, 0); font-size: 12px;&quot;&gt;This sequence diagram illustrates the adding of a level to a location adjacent to a worker after move phase&lt;/span&gt;" style="shape=note;strokeWidth=2;fontSize=14;size=20;whiteSpace=wrap;html=1;fillColor=#fff2cc;strokeColor=#d6b656;fontColor=#666600;align=left;" vertex="1" parent="1">
          <mxGeometry x="213" y="8" width="150" height="110" as="geometry" />
        </mxCell>
        <mxCell id="gKHcMDsB9Kp4FNWf_19_-7" value="&lt;span style=&quot;color: rgb(0, 0, 0); font-size: 12px;&quot;&gt;Scenario specific to a player that has just performed a valid move&lt;/span&gt;" style="shape=note;strokeWidth=2;fontSize=14;size=20;whiteSpace=wrap;html=1;fillColor=#fff2cc;strokeColor=#d6b656;fontColor=#666600;align=left;" vertex="1" parent="1">
          <mxGeometry x="61" y="8" width="120" height="100" as="geometry" />
        </mxCell>
        <mxCell id="gKHcMDsB9Kp4FNWf_19_-10" value=":GameController" style="rounded=0;whiteSpace=wrap;html=1;" vertex="1" parent="1">
          <mxGeometry x="60" y="118" width="120" height="40" as="geometry" />
        </mxCell>
        <mxCell id="gKHcMDsB9Kp4FNWf_19_-52" value="worker:Worker" style="rounded=0;whiteSpace=wrap;html=1;" vertex="1" parent="1">
          <mxGeometry x="484" y="118" width="120" height="40" as="geometry" />
        </mxCell>
        <mxCell id="gKHcMDsB9Kp4FNWf_19_-53" value="" style="endArrow=none;dashed=1;html=1;rounded=0;strokeColor=#747474;entryX=0.5;entryY=1;entryDx=0;entryDy=0;" edge="1" parent="1" source="gKHcMDsB9Kp4FNWf_19_-235" target="gKHcMDsB9Kp4FNWf_19_-52">
          <mxGeometry x="-0.0986" width="50" height="50" relative="1" as="geometry">
            <mxPoint x="544" y="1168.7692307692307" as="sourcePoint" />
            <mxPoint x="728" y="359" as="targetPoint" />
            <Array as="points" />
            <mxPoint as="offset" />
          </mxGeometry>
        </mxCell>
        <mxCell id="gKHcMDsB9Kp4FNWf_19_-57" value="board:Board" style="rounded=0;whiteSpace=wrap;html=1;" vertex="1" parent="1">
          <mxGeometry x="624" y="118" width="120" height="40" as="geometry" />
        </mxCell>
        <mxCell id="gKHcMDsB9Kp4FNWf_19_-69" value="coordinate:Coordinate" style="rounded=0;whiteSpace=wrap;html=1;" vertex="1" parent="1">
          <mxGeometry x="769" y="118" width="120" height="40" as="geometry" />
        </mxCell>
        <mxCell id="gKHcMDsB9Kp4FNWf_19_-108" value="handleSelectWorker(clickedSpace)" style="text;html=1;align=center;verticalAlign=middle;whiteSpace=wrap;rounded=0;" vertex="1" parent="1">
          <mxGeometry x="1169" y="538" width="204" height="10" as="geometry" />
        </mxCell>
        <mxCell id="gKHcMDsB9Kp4FNWf_19_-110" value="&lt;b&gt;opt&lt;/b&gt;" style="shape=umlFrame;whiteSpace=wrap;html=1;pointerEvents=0;recursiveResize=0;container=1;collapsible=0;width=40;height=20;fillColor=#B3B3B3;" vertex="1" parent="1">
          <mxGeometry x="60" y="208" width="1084" height="580" as="geometry" />
        </mxCell>
        <mxCell id="gKHcMDsB9Kp4FNWf_19_-219" value="" style="endArrow=none;dashed=1;html=1;rounded=0;strokeColor=#747474;entryX=0.5;entryY=1;entryDx=0;entryDy=0;" edge="1" parent="gKHcMDsB9Kp4FNWf_19_-110" target="gKHcMDsB9Kp4FNWf_19_-69">
          <mxGeometry x="-0.0986" width="50" height="50" relative="1" as="geometry">
            <mxPoint x="774" y="870" as="sourcePoint" />
            <mxPoint x="775" y="-40" as="targetPoint" />
            <Array as="points" />
            <mxPoint as="offset" />
          </mxGeometry>
        </mxCell>
        <mxCell id="gKHcMDsB9Kp4FNWf_19_-112" value="" style="verticalLabelPosition=bottom;verticalAlign=top;html=1;shape=card;whiteSpace=wrap;size=8;arcSize=12;direction=west;fillColor=#B3B3B3;" vertex="1" parent="gKHcMDsB9Kp4FNWf_19_-110">
          <mxGeometry y="67" width="32" height="23" as="geometry" />
        </mxCell>
        <mxCell id="gKHcMDsB9Kp4FNWf_19_-113" value="&lt;b&gt;alt&lt;/b&gt;" style="text;html=1;align=center;verticalAlign=middle;whiteSpace=wrap;rounded=0;" vertex="1" parent="gKHcMDsB9Kp4FNWf_19_-110">
          <mxGeometry x="-14" y="62.5" width="60" height="30" as="geometry" />
        </mxCell>
        <mxCell id="gKHcMDsB9Kp4FNWf_19_-114" value="" style="endArrow=none;html=1;rounded=0;entryX=1;entryY=0.123;entryDx=0;entryDy=0;entryPerimeter=0;" edge="1" parent="gKHcMDsB9Kp4FNWf_19_-110" target="gKHcMDsB9Kp4FNWf_19_-110">
          <mxGeometry width="50" height="50" relative="1" as="geometry">
            <mxPoint x="33" y="67" as="sourcePoint" />
            <mxPoint x="1074" y="70" as="targetPoint" />
          </mxGeometry>
        </mxCell>
        <mxCell id="gKHcMDsB9Kp4FNWf_19_-115" value="&lt;b style=&quot;font-size: 8px;&quot;&gt;[currentPhase == MOVE&lt;/b&gt;&lt;b style=&quot;font-size: 8px;&quot;&gt;]&lt;/b&gt;" style="text;html=1;align=center;verticalAlign=middle;resizable=0;points=[];autosize=1;strokeColor=none;fillColor=none;" vertex="1" parent="gKHcMDsB9Kp4FNWf_19_-110">
          <mxGeometry x="56" y="-6" width="120" height="30" as="geometry" />
        </mxCell>
        <mxCell id="gKHcMDsB9Kp4FNWf_19_-119" value="" style="rounded=0;whiteSpace=wrap;html=1;" vertex="1" parent="gKHcMDsB9Kp4FNWf_19_-110">
          <mxGeometry x="478" y="22" width="10" height="36" as="geometry" />
        </mxCell>
        <mxCell id="gKHcMDsB9Kp4FNWf_19_-116" value="" style="group" vertex="1" connectable="0" parent="gKHcMDsB9Kp4FNWf_19_-110">
          <mxGeometry x="181" y="20.5" width="180" height="20" as="geometry" />
        </mxCell>
        <mxCell id="gKHcMDsB9Kp4FNWf_19_-117" value="getMoveActions(board)" style="text;html=1;align=center;verticalAlign=middle;whiteSpace=wrap;rounded=0;" vertex="1" parent="gKHcMDsB9Kp4FNWf_19_-116">
          <mxGeometry x="-24" y="3" width="204" height="10" as="geometry" />
        </mxCell>
        <mxCell id="gKHcMDsB9Kp4FNWf_19_-122" style="edgeStyle=orthogonalEdgeStyle;rounded=0;orthogonalLoop=1;jettySize=auto;html=1;entryX=0;entryY=0.5;entryDx=0;entryDy=0;" edge="1" parent="gKHcMDsB9Kp4FNWf_19_-110" target="gKHcMDsB9Kp4FNWf_19_-119">
          <mxGeometry relative="1" as="geometry">
            <mxPoint x="63" y="39.5" as="sourcePoint" />
            <mxPoint x="640" y="40" as="targetPoint" />
            <Array as="points">
              <mxPoint x="63" y="37" />
              <mxPoint x="63" y="40" />
            </Array>
          </mxGeometry>
        </mxCell>
        <mxCell id="gKHcMDsB9Kp4FNWf_19_-124" value="&lt;b style=&quot;font-size: 8px;&quot;&gt;[currentPhase == BUILD and worker has moved&lt;/b&gt;&lt;b style=&quot;font-size: 8px;&quot;&gt;]&lt;/b&gt;" style="text;html=1;align=center;verticalAlign=middle;resizable=0;points=[];autosize=1;strokeColor=none;fillColor=none;" vertex="1" parent="gKHcMDsB9Kp4FNWf_19_-110">
          <mxGeometry x="56" y="60" width="210" height="30" as="geometry" />
        </mxCell>
        <mxCell id="gKHcMDsB9Kp4FNWf_19_-126" value="" style="group" vertex="1" connectable="0" parent="gKHcMDsB9Kp4FNWf_19_-110">
          <mxGeometry x="181" y="85" width="180" height="20" as="geometry" />
        </mxCell>
        <mxCell id="gKHcMDsB9Kp4FNWf_19_-127" value="getBuildActions(board)" style="text;html=1;align=center;verticalAlign=middle;whiteSpace=wrap;rounded=0;" vertex="1" parent="gKHcMDsB9Kp4FNWf_19_-126">
          <mxGeometry x="-24" y="3" width="204" height="10" as="geometry" />
        </mxCell>
        <mxCell id="gKHcMDsB9Kp4FNWf_19_-208" style="edgeStyle=orthogonalEdgeStyle;rounded=0;orthogonalLoop=1;jettySize=auto;html=1;entryX=0;entryY=0.5;entryDx=0;entryDy=0;" edge="1" parent="gKHcMDsB9Kp4FNWf_19_-110">
          <mxGeometry relative="1" as="geometry">
            <mxPoint x="63.519999999999996" y="107.5" as="sourcePoint" />
            <mxPoint x="478.52" y="108" as="targetPoint" />
            <Array as="points">
              <mxPoint x="63.519999999999996" y="105" />
              <mxPoint x="63.519999999999996" y="108" />
            </Array>
          </mxGeometry>
        </mxCell>
        <mxCell id="gKHcMDsB9Kp4FNWf_19_-209" style="edgeStyle=orthogonalEdgeStyle;rounded=0;orthogonalLoop=1;jettySize=auto;html=1;" edge="1" parent="gKHcMDsB9Kp4FNWf_19_-110">
          <mxGeometry relative="1" as="geometry">
            <mxPoint x="495" y="118.5" as="sourcePoint" />
            <mxPoint x="622" y="118.5" as="targetPoint" />
            <Array as="points">
              <mxPoint x="489" y="118.5" />
            </Array>
          </mxGeometry>
        </mxCell>
        <mxCell id="gKHcMDsB9Kp4FNWf_19_-210" value="" style="edgeStyle=none;orthogonalLoop=1;jettySize=auto;html=1;rounded=0;dashed=1;endArrow=open;endFill=0;exitX=-0.057;exitY=0.903;exitDx=0;exitDy=0;entryX=0.814;entryY=0.173;entryDx=0;entryDy=0;entryPerimeter=0;exitPerimeter=0;" edge="1" parent="gKHcMDsB9Kp4FNWf_19_-110" source="gKHcMDsB9Kp4FNWf_19_-213">
          <mxGeometry width="100" relative="1" as="geometry">
            <mxPoint x="615" y="141.5" as="sourcePoint" />
            <mxPoint x="488" y="148.5" as="targetPoint" />
            <Array as="points" />
          </mxGeometry>
        </mxCell>
        <mxCell id="gKHcMDsB9Kp4FNWf_19_-211" value="" style="edgeStyle=none;orthogonalLoop=1;jettySize=auto;html=1;rounded=0;dashed=1;endArrow=open;endFill=0;exitX=0.4;exitY=0.815;exitDx=0;exitDy=0;exitPerimeter=0;entryX=1;entryY=0.25;entryDx=0;entryDy=0;" edge="1" parent="gKHcMDsB9Kp4FNWf_19_-110" source="gKHcMDsB9Kp4FNWf_19_-217">
          <mxGeometry width="100" relative="1" as="geometry">
            <mxPoint x="765" y="198.5" as="sourcePoint" />
            <mxPoint x="490" y="191.5" as="targetPoint" />
            <Array as="points" />
          </mxGeometry>
        </mxCell>
        <mxCell id="gKHcMDsB9Kp4FNWf_19_-212" style="edgeStyle=orthogonalEdgeStyle;rounded=0;orthogonalLoop=1;jettySize=auto;html=1;exitX=0.926;exitY=0.278;exitDx=0;exitDy=0;exitPerimeter=0;entryX=0;entryY=0.5;entryDx=0;entryDy=0;" edge="1" parent="gKHcMDsB9Kp4FNWf_19_-110">
          <mxGeometry relative="1" as="geometry">
            <mxPoint x="490" y="170.29999999999995" as="sourcePoint" />
            <mxPoint x="770" y="170.50000000000045" as="targetPoint" />
            <Array as="points" />
          </mxGeometry>
        </mxCell>
        <mxCell id="gKHcMDsB9Kp4FNWf_19_-214" value="getSpace(coordinate)" style="text;whiteSpace=wrap;html=1;align=center;" vertex="1" parent="gKHcMDsB9Kp4FNWf_19_-110">
          <mxGeometry x="502" y="92.5" width="110" height="40" as="geometry" />
        </mxCell>
        <mxCell id="gKHcMDsB9Kp4FNWf_19_-215" value="space" style="text;whiteSpace=wrap;html=1;align=center;" vertex="1" parent="gKHcMDsB9Kp4FNWf_19_-110">
          <mxGeometry x="502" y="121.5" width="110" height="40" as="geometry" />
        </mxCell>
        <mxCell id="gKHcMDsB9Kp4FNWf_19_-216" value="getAdjacencies(coordinate)" style="text;whiteSpace=wrap;html=1;align=center;" vertex="1" parent="gKHcMDsB9Kp4FNWf_19_-110">
          <mxGeometry x="643" y="146.5" width="110" height="40" as="geometry" />
        </mxCell>
        <mxCell id="gKHcMDsB9Kp4FNWf_19_-217" value="" style="rounded=0;whiteSpace=wrap;html=1;" vertex="1" parent="gKHcMDsB9Kp4FNWf_19_-110">
          <mxGeometry x="770" y="148.5" width="10" height="54" as="geometry" />
        </mxCell>
        <mxCell id="gKHcMDsB9Kp4FNWf_19_-213" value="" style="rounded=0;whiteSpace=wrap;html=1;" vertex="1" parent="gKHcMDsB9Kp4FNWf_19_-110">
          <mxGeometry x="621" y="103.5" width="10" height="50" as="geometry" />
        </mxCell>
        <mxCell id="gKHcMDsB9Kp4FNWf_19_-174" value="neighbours" style="text;whiteSpace=wrap;html=1;align=center;" vertex="1" parent="gKHcMDsB9Kp4FNWf_19_-110">
          <mxGeometry x="621" y="170" width="110" height="40" as="geometry" />
        </mxCell>
        <mxCell id="gKHcMDsB9Kp4FNWf_19_-179" style="edgeStyle=orthogonalEdgeStyle;rounded=0;orthogonalLoop=1;jettySize=auto;html=1;exitX=0.926;exitY=0.278;exitDx=0;exitDy=0;exitPerimeter=0;entryX=0;entryY=0.5;entryDx=0;entryDy=0;" edge="1" parent="gKHcMDsB9Kp4FNWf_19_-110" target="gKHcMDsB9Kp4FNWf_19_-176">
          <mxGeometry relative="1" as="geometry">
            <mxPoint x="489" y="284.37" as="sourcePoint" />
            <mxPoint x="769" y="284.5700000000005" as="targetPoint" />
            <Array as="points" />
          </mxGeometry>
        </mxCell>
        <mxCell id="gKHcMDsB9Kp4FNWf_19_-205" value="" style="endArrow=classic;html=1;rounded=0;edgeStyle=orthogonalEdgeStyle;exitX=0.037;exitY=1.108;exitDx=0;exitDy=0;exitPerimeter=0;entryX=0.6;entryY=0.601;entryDx=0;entryDy=0;entryPerimeter=0;" edge="1" parent="gKHcMDsB9Kp4FNWf_19_-110">
          <mxGeometry width="50" height="50" relative="1" as="geometry">
            <mxPoint x="488.7000000000003" y="260.24000000000024" as="sourcePoint" />
            <mxPoint x="488" y="549.9769999999999" as="targetPoint" />
            <Array as="points">
              <mxPoint x="928" y="260" />
              <mxPoint x="928" y="550" />
            </Array>
          </mxGeometry>
        </mxCell>
        <mxCell id="gKHcMDsB9Kp4FNWf_19_-176" value="build:BuildAction" style="rounded=0;whiteSpace=wrap;html=1;" vertex="1" parent="gKHcMDsB9Kp4FNWf_19_-110">
          <mxGeometry x="794" y="265" width="120" height="40" as="geometry" />
        </mxCell>
        <mxCell id="gKHcMDsB9Kp4FNWf_19_-180" value="&amp;lt;&amp;lt;creates&amp;gt;&amp;gt;" style="text;whiteSpace=wrap;html=1;align=center;" vertex="1" parent="gKHcMDsB9Kp4FNWf_19_-110">
          <mxGeometry x="642" y="263" width="110" height="40" as="geometry" />
        </mxCell>
        <mxCell id="gKHcMDsB9Kp4FNWf_19_-35" value="&lt;font color=&quot;#000000&quot;&gt;&lt;span style=&quot;font-size: 12px;&quot;&gt;For simplicity and relevancy, God functionality is not explicitly depicted&lt;/span&gt;&lt;/font&gt;" style="shape=note;strokeWidth=2;fontSize=14;size=20;whiteSpace=wrap;html=1;fillColor=#fff2cc;strokeColor=#d6b656;fontColor=#666600;align=left;" vertex="1" parent="gKHcMDsB9Kp4FNWf_19_-110">
          <mxGeometry x="361" y="121.5" width="109" height="100" as="geometry" />
        </mxCell>
        <mxCell id="gKHcMDsB9Kp4FNWf_19_-224" value="" style="endArrow=none;dashed=1;html=1;rounded=0;strokeColor=#747474;entryX=0.5;entryY=1;entryDx=0;entryDy=0;" edge="1" parent="gKHcMDsB9Kp4FNWf_19_-110" source="gKHcMDsB9Kp4FNWf_19_-225">
          <mxGeometry x="-0.0986" width="50" height="50" relative="1" as="geometry">
            <mxPoint x="939" y="650" as="sourcePoint" />
            <mxPoint x="934" y="-50" as="targetPoint" />
            <Array as="points" />
            <mxPoint as="offset" />
          </mxGeometry>
        </mxCell>
        <mxCell id="gKHcMDsB9Kp4FNWf_19_-226" value="" style="endArrow=none;dashed=1;html=1;rounded=0;strokeColor=#747474;entryX=0.5;entryY=1;entryDx=0;entryDy=0;" edge="1" parent="gKHcMDsB9Kp4FNWf_19_-110" target="gKHcMDsB9Kp4FNWf_19_-225">
          <mxGeometry x="-0.0986" width="50" height="50" relative="1" as="geometry">
            <mxPoint x="934" y="850" as="sourcePoint" />
            <mxPoint x="950" y="-20" as="targetPoint" />
            <Array as="points" />
            <mxPoint as="offset" />
          </mxGeometry>
        </mxCell>
        <mxCell id="gKHcMDsB9Kp4FNWf_19_-225" value="" style="rounded=0;whiteSpace=wrap;html=1;" vertex="1" parent="gKHcMDsB9Kp4FNWf_19_-110">
          <mxGeometry x="929" y="179" width="10" height="54" as="geometry" />
        </mxCell>
        <mxCell id="gKHcMDsB9Kp4FNWf_19_-227" value="" style="edgeStyle=none;orthogonalLoop=1;jettySize=auto;html=1;rounded=0;dashed=1;endArrow=open;endFill=0;exitX=0.4;exitY=0.815;exitDx=0;exitDy=0;exitPerimeter=0;entryX=0.045;entryY=-0.056;entryDx=0;entryDy=0;entryPerimeter=0;" edge="1" parent="gKHcMDsB9Kp4FNWf_19_-110" target="gKHcMDsB9Kp4FNWf_19_-182">
          <mxGeometry width="100" relative="1" as="geometry">
            <mxPoint x="929" y="231.5" as="sourcePoint" />
            <mxPoint x="645" y="230" as="targetPoint" />
            <Array as="points" />
          </mxGeometry>
        </mxCell>
        <mxCell id="gKHcMDsB9Kp4FNWf_19_-228" style="edgeStyle=orthogonalEdgeStyle;rounded=0;orthogonalLoop=1;jettySize=auto;html=1;exitX=0.813;exitY=0.228;exitDx=0;exitDy=0;entryX=0;entryY=0.5;entryDx=0;entryDy=0;exitPerimeter=0;" edge="1" parent="gKHcMDsB9Kp4FNWf_19_-110" source="gKHcMDsB9Kp4FNWf_19_-129">
          <mxGeometry relative="1" as="geometry">
            <mxPoint x="645" y="208.79999999999995" as="sourcePoint" />
            <mxPoint x="925" y="209.00000000000045" as="targetPoint" />
            <Array as="points" />
          </mxGeometry>
        </mxCell>
        <mxCell id="gKHcMDsB9Kp4FNWf_19_-229" value="getHeight()" style="text;whiteSpace=wrap;html=1;align=center;" vertex="1" parent="gKHcMDsB9Kp4FNWf_19_-110">
          <mxGeometry x="798" y="185" width="110" height="40" as="geometry" />
        </mxCell>
        <mxCell id="gKHcMDsB9Kp4FNWf_19_-230" value="height" style="text;whiteSpace=wrap;html=1;align=center;" vertex="1" parent="gKHcMDsB9Kp4FNWf_19_-110">
          <mxGeometry x="776" y="208.5" width="110" height="40" as="geometry" />
        </mxCell>
        <mxCell id="gKHcMDsB9Kp4FNWf_19_-181" value="&lt;b&gt;loop&lt;/b&gt;" style="shape=umlFrame;whiteSpace=wrap;html=1;pointerEvents=0;recursiveResize=0;container=1;collapsible=0;width=40;height=20;fillColor=#B3B3B3;" vertex="1" parent="gKHcMDsB9Kp4FNWf_19_-110">
          <mxGeometry x="424" y="244" width="646" height="326" as="geometry" />
        </mxCell>
        <mxCell id="gKHcMDsB9Kp4FNWf_19_-222" value="" style="endArrow=none;dashed=1;html=1;rounded=0;strokeColor=#747474;entryX=0.5;entryY=1;entryDx=0;entryDy=0;" edge="1" parent="gKHcMDsB9Kp4FNWf_19_-181">
          <mxGeometry x="-0.0986" width="50" height="50" relative="1" as="geometry">
            <mxPoint x="433" y="636" as="sourcePoint" />
            <mxPoint x="427.5" y="66" as="targetPoint" />
            <Array as="points" />
            <mxPoint as="offset" />
          </mxGeometry>
        </mxCell>
        <mxCell id="gKHcMDsB9Kp4FNWf_19_-182" value="&lt;font style=&quot;font-size: 8px;&quot;&gt;&lt;b&gt;[for each neighbour]&lt;/b&gt;&lt;/font&gt;" style="text;html=1;align=center;verticalAlign=middle;resizable=0;points=[];autosize=1;strokeColor=none;fillColor=none;" vertex="1" parent="gKHcMDsB9Kp4FNWf_19_-181">
          <mxGeometry x="60" y="-10" width="100" height="30" as="geometry" />
        </mxCell>
        <mxCell id="gKHcMDsB9Kp4FNWf_19_-183" value="&lt;b&gt;opt&lt;/b&gt;" style="shape=umlFrame;whiteSpace=wrap;html=1;pointerEvents=0;recursiveResize=0;container=0;collapsible=0;width=40;height=20;fillColor=#B3B3B3;" vertex="1" parent="gKHcMDsB9Kp4FNWf_19_-181">
          <mxGeometry x="10" y="73" width="478" height="57" as="geometry" />
        </mxCell>
        <mxCell id="gKHcMDsB9Kp4FNWf_19_-184" value="&lt;span style=&quot;font-size: 8px;&quot;&gt;&lt;b&gt;[height == 4]&lt;/b&gt;&lt;/span&gt;" style="text;html=1;align=center;verticalAlign=middle;resizable=0;points=[];autosize=1;strokeColor=none;fillColor=none;" vertex="1" parent="gKHcMDsB9Kp4FNWf_19_-181">
          <mxGeometry x="70" y="66" width="70" height="30" as="geometry" />
        </mxCell>
        <mxCell id="gKHcMDsB9Kp4FNWf_19_-185" value="" style="rounded=0;whiteSpace=wrap;html=1;" vertex="1" parent="gKHcMDsB9Kp4FNWf_19_-181">
          <mxGeometry x="425" y="83" width="10" height="30" as="geometry" />
        </mxCell>
        <mxCell id="gKHcMDsB9Kp4FNWf_19_-186" style="edgeStyle=orthogonalEdgeStyle;rounded=0;orthogonalLoop=1;jettySize=auto;html=1;exitX=0.926;exitY=0.278;exitDx=0;exitDy=0;exitPerimeter=0;entryX=0;entryY=0.75;entryDx=0;entryDy=0;" edge="1" parent="gKHcMDsB9Kp4FNWf_19_-181">
          <mxGeometry relative="1" as="geometry">
            <mxPoint x="60" y="96" as="sourcePoint" />
            <mxPoint x="425" y="97.13" as="targetPoint" />
            <Array as="points">
              <mxPoint x="60" y="97" />
            </Array>
          </mxGeometry>
        </mxCell>
        <mxCell id="gKHcMDsB9Kp4FNWf_19_-187" value="setAsInvalid()" style="text;whiteSpace=wrap;html=1;align=center;" vertex="1" parent="gKHcMDsB9Kp4FNWf_19_-181">
          <mxGeometry x="213" y="75" width="110" height="40" as="geometry" />
        </mxCell>
        <mxCell id="gKHcMDsB9Kp4FNWf_19_-188" value="&lt;b&gt;opt&lt;/b&gt;" style="shape=umlFrame;whiteSpace=wrap;html=1;pointerEvents=0;recursiveResize=0;container=0;collapsible=0;width=40;height=20;fillColor=#B3B3B3;" vertex="1" parent="gKHcMDsB9Kp4FNWf_19_-181">
          <mxGeometry x="10" y="150" width="478" height="57" as="geometry" />
        </mxCell>
        <mxCell id="gKHcMDsB9Kp4FNWf_19_-189" value="&lt;span style=&quot;font-size: 8px;&quot;&gt;&lt;b&gt;[targetPosition has a worker]&lt;/b&gt;&lt;/span&gt;" style="text;html=1;align=center;verticalAlign=middle;resizable=0;points=[];autosize=1;strokeColor=none;fillColor=none;" vertex="1" parent="gKHcMDsB9Kp4FNWf_19_-181">
          <mxGeometry x="60" y="143" width="130" height="30" as="geometry" />
        </mxCell>
        <mxCell id="gKHcMDsB9Kp4FNWf_19_-190" value="" style="rounded=0;whiteSpace=wrap;html=1;" vertex="1" parent="gKHcMDsB9Kp4FNWf_19_-181">
          <mxGeometry x="425" y="160" width="10" height="30" as="geometry" />
        </mxCell>
        <mxCell id="gKHcMDsB9Kp4FNWf_19_-191" style="edgeStyle=orthogonalEdgeStyle;rounded=0;orthogonalLoop=1;jettySize=auto;html=1;exitX=0.926;exitY=0.278;exitDx=0;exitDy=0;exitPerimeter=0;entryX=0;entryY=0.75;entryDx=0;entryDy=0;" edge="1" parent="gKHcMDsB9Kp4FNWf_19_-181">
          <mxGeometry relative="1" as="geometry">
            <mxPoint x="60" y="173" as="sourcePoint" />
            <mxPoint x="425" y="174.13" as="targetPoint" />
            <Array as="points">
              <mxPoint x="60" y="174" />
            </Array>
          </mxGeometry>
        </mxCell>
        <mxCell id="gKHcMDsB9Kp4FNWf_19_-193" value="&lt;b&gt;opt&lt;/b&gt;" style="shape=umlFrame;whiteSpace=wrap;html=1;pointerEvents=0;recursiveResize=0;container=0;collapsible=0;width=40;height=20;fillColor=#B3B3B3;" vertex="1" parent="gKHcMDsB9Kp4FNWf_19_-181">
          <mxGeometry x="10" y="220" width="478" height="57" as="geometry" />
        </mxCell>
        <mxCell id="gKHcMDsB9Kp4FNWf_19_-194" value="&lt;span style=&quot;font-size: 8px;&quot;&gt;&lt;b&gt;[targetPosition is not a space that&amp;nbsp; can be built on]&lt;/b&gt;&lt;/span&gt;" style="text;html=1;align=center;verticalAlign=middle;resizable=0;points=[];autosize=1;strokeColor=none;fillColor=none;" vertex="1" parent="gKHcMDsB9Kp4FNWf_19_-181">
          <mxGeometry x="55" y="213" width="220" height="30" as="geometry" />
        </mxCell>
        <mxCell id="gKHcMDsB9Kp4FNWf_19_-195" value="" style="rounded=0;whiteSpace=wrap;html=1;" vertex="1" parent="gKHcMDsB9Kp4FNWf_19_-181">
          <mxGeometry x="425" y="238" width="10" height="30" as="geometry" />
        </mxCell>
        <mxCell id="gKHcMDsB9Kp4FNWf_19_-196" style="edgeStyle=orthogonalEdgeStyle;rounded=0;orthogonalLoop=1;jettySize=auto;html=1;exitX=0.926;exitY=0.278;exitDx=0;exitDy=0;exitPerimeter=0;entryX=0;entryY=0.75;entryDx=0;entryDy=0;" edge="1" parent="gKHcMDsB9Kp4FNWf_19_-181">
          <mxGeometry relative="1" as="geometry">
            <mxPoint x="60" y="255" as="sourcePoint" />
            <mxPoint x="425" y="256.13" as="targetPoint" />
            <Array as="points">
              <mxPoint x="60" y="256" />
            </Array>
          </mxGeometry>
        </mxCell>
        <mxCell id="gKHcMDsB9Kp4FNWf_19_-197" value="setAsInvalid(invalidReason)" style="text;whiteSpace=wrap;html=1;align=center;" vertex="1" parent="gKHcMDsB9Kp4FNWf_19_-181">
          <mxGeometry x="221" y="232" width="110" height="40" as="geometry" />
        </mxCell>
        <mxCell id="gKHcMDsB9Kp4FNWf_19_-203" value="" style="group" vertex="1" connectable="0" parent="gKHcMDsB9Kp4FNWf_19_-181">
          <mxGeometry x="500" y="193" width="180" height="20" as="geometry" />
        </mxCell>
        <mxCell id="gKHcMDsB9Kp4FNWf_19_-204" value="getBuild(targetPosition)" style="text;html=1;align=center;verticalAlign=middle;whiteSpace=wrap;rounded=0;" vertex="1" parent="gKHcMDsB9Kp4FNWf_19_-203">
          <mxGeometry x="-24" y="3" width="204" height="10" as="geometry" />
        </mxCell>
        <mxCell id="gKHcMDsB9Kp4FNWf_19_-231" value="&lt;font color=&quot;#000000&quot;&gt;&lt;span style=&quot;font-size: 12px;&quot;&gt;dome&lt;/span&gt;&lt;/font&gt;" style="shape=note;strokeWidth=2;fontSize=14;size=20;whiteSpace=wrap;html=1;fillColor=#fff2cc;strokeColor=#d6b656;fontColor=#666600;align=left;" vertex="1" parent="gKHcMDsB9Kp4FNWf_19_-181">
          <mxGeometry x="520" y="96" width="60" height="30" as="geometry" />
        </mxCell>
        <mxCell id="gKHcMDsB9Kp4FNWf_19_-232" value="setAsInvalid()" style="text;whiteSpace=wrap;html=1;align=center;" vertex="1" parent="gKHcMDsB9Kp4FNWf_19_-181">
          <mxGeometry x="213" y="150" width="110" height="40" as="geometry" />
        </mxCell>
        <mxCell id="gKHcMDsB9Kp4FNWf_19_-175" value="&lt;font color=&quot;#000000&quot;&gt;&lt;span style=&quot;font-size: 12px;&quot;&gt;neighbours is an array holding all surrounding coordinates, from the current space&#39;s coordinate&lt;/span&gt;&lt;/font&gt;" style="shape=note;strokeWidth=2;fontSize=14;size=20;whiteSpace=wrap;html=1;fillColor=#fff2cc;strokeColor=#d6b656;fontColor=#666600;align=left;" vertex="1" parent="gKHcMDsB9Kp4FNWf_19_-110">
          <mxGeometry x="950" y="90" width="120" height="100" as="geometry" />
        </mxCell>
        <mxCell id="gKHcMDsB9Kp4FNWf_19_-162" value="" style="group" vertex="1" connectable="0" parent="1">
          <mxGeometry x="61" y="890" width="759" height="158" as="geometry" />
        </mxCell>
        <mxCell id="gKHcMDsB9Kp4FNWf_19_-132" value="handleWorkerBuilds(clickedSpace)" style="text;html=1;align=center;verticalAlign=middle;whiteSpace=wrap;rounded=0;" vertex="1" parent="gKHcMDsB9Kp4FNWf_19_-162">
          <mxGeometry x="524" y="98" width="204" height="10" as="geometry" />
        </mxCell>
        <mxCell id="gKHcMDsB9Kp4FNWf_19_-133" value="" style="endArrow=classic;html=1;rounded=0;edgeStyle=orthogonalEdgeStyle;exitX=0.4;exitY=0.588;exitDx=0;exitDy=0;exitPerimeter=0;entryX=1.064;entryY=0.331;entryDx=0;entryDy=0;entryPerimeter=0;" edge="1" parent="gKHcMDsB9Kp4FNWf_19_-162">
          <mxGeometry width="50" height="50" relative="1" as="geometry">
            <mxPoint x="53" y="-31.0920000000001" as="sourcePoint" />
            <mxPoint x="61.24000000000001" y="158" as="targetPoint" />
            <Array as="points">
              <mxPoint x="58" y="1" />
              <mxPoint x="521" />
              <mxPoint x="521" y="158" />
            </Array>
          </mxGeometry>
        </mxCell>
        <mxCell id="gKHcMDsB9Kp4FNWf_19_-135" value="&lt;b&gt;loop&lt;/b&gt;" style="shape=umlFrame;whiteSpace=wrap;html=1;pointerEvents=0;recursiveResize=0;container=1;collapsible=0;width=40;height=20;fillColor=#B3B3B3;" vertex="1" parent="gKHcMDsB9Kp4FNWf_19_-162">
          <mxGeometry y="20" width="514" height="120" as="geometry" />
        </mxCell>
        <mxCell id="gKHcMDsB9Kp4FNWf_19_-136" value="&lt;font style=&quot;font-size: 8px;&quot;&gt;&lt;b&gt;[for each build in possibleBuilds]&lt;/b&gt;&lt;/font&gt;" style="text;html=1;align=center;verticalAlign=middle;resizable=0;points=[];autosize=1;strokeColor=none;fillColor=none;" vertex="1" parent="gKHcMDsB9Kp4FNWf_19_-135">
          <mxGeometry x="59" y="-9" width="150" height="30" as="geometry" />
        </mxCell>
        <mxCell id="gKHcMDsB9Kp4FNWf_19_-137" value="&lt;b&gt;opt&lt;/b&gt;" style="shape=umlFrame;whiteSpace=wrap;html=1;pointerEvents=0;recursiveResize=0;container=0;collapsible=0;width=40;height=20;fillColor=#B3B3B3;" vertex="1" parent="gKHcMDsB9Kp4FNWf_19_-135">
          <mxGeometry x="10" y="26" width="490" height="84" as="geometry" />
        </mxCell>
        <mxCell id="gKHcMDsB9Kp4FNWf_19_-138" value="&lt;span style=&quot;font-size: 8px;&quot;&gt;&lt;b&gt;[build is the selected build and is valid]&lt;/b&gt;&lt;/span&gt;" style="text;html=1;align=center;verticalAlign=middle;resizable=0;points=[];autosize=1;strokeColor=none;fillColor=none;" vertex="1" parent="gKHcMDsB9Kp4FNWf_19_-135">
          <mxGeometry x="60" y="17" width="170" height="30" as="geometry" />
        </mxCell>
        <mxCell id="gKHcMDsB9Kp4FNWf_19_-140" style="edgeStyle=orthogonalEdgeStyle;rounded=0;orthogonalLoop=1;jettySize=auto;html=1;exitX=0.926;exitY=0.278;exitDx=0;exitDy=0;exitPerimeter=0;entryX=0.6;entryY=0.565;entryDx=0;entryDy=0;entryPerimeter=0;" edge="1" parent="gKHcMDsB9Kp4FNWf_19_-135">
          <mxGeometry relative="1" as="geometry">
            <mxPoint x="57" y="60" as="sourcePoint" />
            <mxPoint x="478" y="61.01000000000022" as="targetPoint" />
            <Array as="points">
              <mxPoint x="57" y="61" />
            </Array>
          </mxGeometry>
        </mxCell>
        <mxCell id="gKHcMDsB9Kp4FNWf_19_-141" value="processTurn(board, build)" style="text;whiteSpace=wrap;html=1;align=center;" vertex="1" parent="gKHcMDsB9Kp4FNWf_19_-135">
          <mxGeometry x="184" y="34.5" width="177" height="40" as="geometry" />
        </mxCell>
        <mxCell id="gKHcMDsB9Kp4FNWf_19_-161" value="" style="endArrow=classic;html=1;rounded=0;edgeStyle=orthogonalEdgeStyle;exitX=0.976;exitY=0.372;exitDx=0;exitDy=0;exitPerimeter=0;" edge="1" parent="gKHcMDsB9Kp4FNWf_19_-135">
          <mxGeometry width="50" height="50" relative="1" as="geometry">
            <mxPoint x="60" y="70.49000000000001" as="sourcePoint" />
            <mxPoint x="61.24000000000001" y="94.97000000000003" as="targetPoint" />
            <Array as="points">
              <mxPoint x="61.24000000000001" y="70.97000000000003" />
              <mxPoint x="105.24000000000001" y="69.97000000000003" />
              <mxPoint x="105.24000000000001" y="94.97000000000003" />
            </Array>
          </mxGeometry>
        </mxCell>
        <mxCell id="gKHcMDsB9Kp4FNWf_19_-160" value="endTurn()" style="text;html=1;align=center;verticalAlign=middle;whiteSpace=wrap;rounded=0;" vertex="1" parent="gKHcMDsB9Kp4FNWf_19_-135">
          <mxGeometry x="43" y="74.5" width="204" height="10" as="geometry" />
        </mxCell>
        <mxCell id="gKHcMDsB9Kp4FNWf_19_-159" value="&lt;font color=&quot;#000000&quot;&gt;&lt;span style=&quot;font-size: 12px;&quot;&gt;processTurn adds the building to the board, and adds this action to the worker&#39;s history&lt;/span&gt;&lt;/font&gt;" style="shape=note;strokeWidth=2;fontSize=14;size=20;whiteSpace=wrap;html=1;fillColor=#fff2cc;strokeColor=#d6b656;fontColor=#666600;align=left;" vertex="1" parent="gKHcMDsB9Kp4FNWf_19_-162">
          <mxGeometry x="633" y="-22" width="126" height="110" as="geometry" />
        </mxCell>
        <mxCell id="gKHcMDsB9Kp4FNWf_19_-166" value="" style="endArrow=none;dashed=1;html=1;rounded=0;strokeColor=#747474;entryX=0.5;entryY=1;entryDx=0;entryDy=0;" edge="1" parent="1" target="gKHcMDsB9Kp4FNWf_19_-129">
          <mxGeometry x="-0.0986" width="50" height="50" relative="1" as="geometry">
            <mxPoint x="544" y="713" as="sourcePoint" />
            <mxPoint x="544" y="158" as="targetPoint" />
            <Array as="points" />
            <mxPoint as="offset" />
          </mxGeometry>
        </mxCell>
        <mxCell id="gKHcMDsB9Kp4FNWf_19_-129" value="" style="rounded=0;whiteSpace=wrap;html=1;" vertex="1" parent="1">
          <mxGeometry x="538" y="291" width="10" height="557" as="geometry" />
        </mxCell>
        <mxCell id="gKHcMDsB9Kp4FNWf_19_-207" value="targetPosition:Space" style="rounded=0;whiteSpace=wrap;html=1;" vertex="1" parent="1">
          <mxGeometry x="934" y="118" width="120" height="40" as="geometry" />
        </mxCell>
        <mxCell id="gKHcMDsB9Kp4FNWf_19_-45" value="" style="rounded=0;whiteSpace=wrap;html=1;" vertex="1" parent="1">
          <mxGeometry x="113" y="188" width="10" height="870" as="geometry" />
        </mxCell>
        <mxCell id="gKHcMDsB9Kp4FNWf_19_-130" value="" style="edgeStyle=none;orthogonalLoop=1;jettySize=auto;html=1;rounded=0;exitX=0;exitY=0.833;exitDx=0;exitDy=0;dashed=1;endArrow=open;endFill=0;exitPerimeter=0;" edge="1" parent="1">
          <mxGeometry width="100" relative="1" as="geometry">
            <mxPoint x="538" y="832" as="sourcePoint" />
            <mxPoint x="124" y="832.02" as="targetPoint" />
            <Array as="points" />
          </mxGeometry>
        </mxCell>
        <mxCell id="gKHcMDsB9Kp4FNWf_19_-131" value="possibleBuilds" style="text;whiteSpace=wrap;html=1;align=center;" vertex="1" parent="1">
          <mxGeometry x="294" y="807" width="110" height="40" as="geometry" />
        </mxCell>
        <mxCell id="gKHcMDsB9Kp4FNWf_19_-109" value="" style="endArrow=classic;html=1;rounded=0;edgeStyle=orthogonalEdgeStyle;" edge="1" parent="1">
          <mxGeometry width="50" height="50" relative="1" as="geometry">
            <mxPoint x="123" y="188" as="sourcePoint" />
            <mxPoint x="123.62" y="857.35" as="targetPoint" />
            <Array as="points">
              <mxPoint x="1170" y="188" />
              <mxPoint x="1170" y="857" />
            </Array>
          </mxGeometry>
        </mxCell>
        <mxCell id="gKHcMDsB9Kp4FNWf_19_-236" value="" style="endArrow=none;dashed=1;html=1;rounded=0;strokeColor=#747474;entryX=0.5;entryY=1;entryDx=0;entryDy=0;" edge="1" parent="1" target="gKHcMDsB9Kp4FNWf_19_-235">
          <mxGeometry x="-0.0986" width="50" height="50" relative="1" as="geometry">
            <mxPoint x="543" y="1130" as="sourcePoint" />
            <mxPoint x="544" y="158" as="targetPoint" />
            <Array as="points" />
            <mxPoint as="offset" />
          </mxGeometry>
        </mxCell>
        <mxCell id="gKHcMDsB9Kp4FNWf_19_-235" value="" style="rounded=0;whiteSpace=wrap;html=1;" vertex="1" parent="1">
          <mxGeometry x="538" y="940.5" width="10" height="54" as="geometry" />
        </mxCell>
      </root>
    </mxGraphModel>
  </diagram>
</mxfile>
